<svg xmlns="http://www.w3.org/2000/svg" viewBox="0 0 512 512">
  <rect width="512" height="512" rx="112" fill="#f6f3ee"/>
  <g fill="none" stroke="#8b9587" stroke-width="18" stroke-linecap="round" stroke-linejoin="round">
    <path d="M256 348 C 176 314, 148 238, 164 172 C 212 188, 244 238, 252 280"/>
    <path d="M256 348 C 336 314, 364 238, 348 172 C 300 188, 268 238, 260 280"/>
    <path d="M256 348 C 256 268, 256 188, 256 128 C 272 156, 272 220, 256 280"/>
    <path d="M256 348 C 256 268, 256 188, 256 128 C 240 156, 240 220, 256 280"/>
    <path d="M180 376 Q 256 396, 332 376" opacity="0.5"/>
  </g>
</svg>
